<svg width="4620" height="11278" viewBox="0 0 4620 11278" fill="none" xmlns="http://www.w3.org/2000/svg">
<g clip-path="url(#clip0_60_2)">
<rect width="11278" height="4620" transform="translate(4620) rotate(90)" fill="white"/>
<line x1="3" y1="9796.5" x2="4620" y2="9796.5" stroke="black"/>
<line x1="3" y1="10364.5" x2="4620" y2="10364.5" stroke="black"/>
<line x1="3" y1="10702.5" x2="4620" y2="10905.5" stroke="black"/>
<line x1="3" y1="10927.5" x2="4620" y2="11276.5" stroke="black"/>
<path d="M2414 10264.4C2414 10293.7 2404.56 10317.8 2385.67 10336.7C2366.78 10355.6 2342.69 10365 2313.42 10365C2284.14 10365 2259.58 10355.6 2239.75 10336.7C2219.92 10316.8 2210 10292.7 2210 10264.4C2210 10235.1 2219.92 10210.6 2239.75 10190.7C2259.58 10170.9 2284.14 10161 2313.42 10161C2340.81 10161 2364.42 10170.9 2384.25 10190.7C2404.08 10210.6 2414 10235.1 2414 10264.4Z" fill="#6527C8"/>
<rect x="2765" y="9797" width="62" height="907" rx="31" transform="rotate(90 2765 9797)" fill="#E97B00"/>
<rect x="2757" y="10361" width="62" height="400" rx="31" transform="rotate(-180 2757 10361)" fill="#F1DE27"/>
<line x1="105" y1="6624.5" x2="4722" y2="6624.5" stroke="black"/>
<line x1="105" y1="7192.5" x2="4722" y2="7192.5" stroke="black"/>
<line x1="105" y1="7530.5" x2="4722" y2="7733.5" stroke="black"/>
<line x1="105" y1="7755.5" x2="4722" y2="8104.5" stroke="black"/>
<path d="M2780.54 6987.08C2809.78 6987.08 2833.84 6996.53 2852.7 7015.44C2871.57 7034.34 2881 7058.45 2881 7087.75C2881 7117.05 2871.57 7141.63 2852.7 7161.48C2832.89 7181.33 2808.84 7191.25 2780.54 7191.25C2751.3 7191.25 2726.78 7181.33 2706.97 7161.48C2687.16 7141.63 2677.25 7117.05 2677.25 7087.75C2677.25 7060.34 2687.16 7036.71 2706.97 7016.86C2726.78 6997.01 2751.3 6987.08 2780.54 6987.08Z" fill="#EA70C7"/>
<path d="M2044.79 6987.08C2074.03 6987.08 2098.09 6996.53 2116.95 7015.44C2135.82 7034.34 2145.25 7058.45 2145.25 7087.75C2145.25 7117.05 2135.82 7141.63 2116.95 7161.48C2097.14 7181.33 2073.09 7191.25 2044.79 7191.25C2015.55 7191.25 1991.03 7181.33 1971.22 7161.48C1951.41 7141.63 1941.5 7117.05 1941.5 7087.75C1941.5 7060.34 1951.41 7036.71 1971.22 7016.86C1991.03 6997.01 2015.55 6987.08 2044.79 6987.08Z" fill="#EA70C7"/>
<rect x="2376.96" y="6625" width="63.8028" height="906" rx="31.9014" fill="#F2E028"/>
<rect x="2342" y="7358" width="400" height="62" rx="31" transform="rotate(-180 2342 7358)" fill="#004AC3"/>
<line x1="3" y1="3452.5" x2="4620" y2="3452.5" stroke="black"/>
<line x1="3" y1="4020.5" x2="4620" y2="4020.5" stroke="black"/>
<line x1="3" y1="4358.5" x2="4620" y2="4561.5" stroke="black"/>
<line x1="3" y1="4583.5" x2="4620" y2="4932.5" stroke="black"/>
<path d="M2676.18 4156.56C2705.24 4156.56 2729.14 4165.86 2747.88 4184.45C2766.63 4203.05 2776 4226.76 2776 4255.59C2776 4284.42 2766.63 4308.6 2747.88 4328.13C2728.2 4347.65 2704.3 4357.42 2676.18 4357.42C2647.13 4357.42 2622.76 4347.65 2603.08 4328.13C2583.4 4308.6 2573.56 4284.42 2573.56 4255.59C2573.56 4228.62 2583.4 4205.38 2603.08 4185.85C2622.76 4166.32 2647.13 4156.56 2676.18 4156.56Z" fill="#E97B02"/>
<path d="M1945.49 4156.56C1974.54 4156.56 1998.44 4165.86 2017.19 4184.45C2035.93 4203.05 2045.3 4226.76 2045.3 4255.59C2045.3 4284.42 2035.93 4308.6 2017.19 4328.13C1997.51 4347.65 1973.61 4357.42 1945.49 4357.42C1916.43 4357.42 1892.07 4347.65 1872.38 4328.13C1852.7 4308.6 1842.86 4284.42 1842.86 4255.59C1842.86 4228.62 1852.7 4205.38 1872.38 4185.85C1892.07 4166.32 1916.43 4156.56 1945.49 4156.56Z" fill="#E97B02"/>
<rect x="2280.96" y="3460.66" width="61.682" height="898.343" rx="30.841" fill="black"/>
<rect x="2779" y="4023" width="62" height="400" rx="31" transform="rotate(-180 2779 4023)" fill="#6527C8"/>
<rect x="2240" y="3867" width="400" height="62" rx="31" transform="rotate(-180 2240 3867)" fill="#00A20D"/>
<line x1="3" y1="446.5" x2="4620" y2="446.5" stroke="black"/>
<line x1="3" y1="1014.5" x2="4620" y2="1014.5" stroke="black"/>
<line x1="3" y1="1352.5" x2="4620" y2="1555.5" stroke="black"/>
<path d="M2613.94 1371.5C2643.07 1371.5 2667.03 1380.89 2685.82 1399.68C2704.61 1418.47 2714 1442.43 2714 1471.56C2714 1500.68 2704.61 1525.11 2685.82 1544.84C2666.09 1564.57 2642.13 1574.44 2613.94 1574.44C2584.82 1574.44 2560.39 1564.57 2540.66 1544.84C2520.93 1525.11 2511.06 1500.68 2511.06 1471.56C2511.06 1444.31 2520.93 1420.82 2540.66 1401.09C2560.39 1381.36 2584.82 1371.5 2613.94 1371.5Z" fill="#EA70C7"/>
<path d="M2022.04 1371.5C2051.16 1371.5 2075.12 1380.89 2093.91 1399.68C2112.7 1418.47 2122.1 1442.43 2122.1 1471.56C2122.1 1500.68 2112.7 1525.11 2093.91 1544.84C2074.18 1564.57 2050.22 1574.44 2022.04 1574.44C1992.91 1574.44 1968.48 1564.57 1948.75 1544.84C1929.02 1525.11 1919.16 1500.68 1919.16 1471.56C1919.16 1444.31 1929.02 1420.82 1948.75 1401.09C1968.48 1381.36 1992.91 1371.5 2022.04 1371.5Z" fill="#EA70C7"/>
<path d="M2317.87 627.385C2347 627.385 2370.96 636.78 2389.75 655.571C2408.54 674.362 2417.93 698.32 2417.93 727.445C2417.93 756.571 2408.54 780.999 2389.75 800.729C2370.02 820.459 2346.06 830.324 2317.87 830.324C2288.75 830.324 2264.32 820.459 2244.59 800.729C2224.86 780.999 2214.99 756.571 2214.99 727.445C2214.99 700.199 2224.86 676.711 2244.59 656.98C2264.32 637.25 2288.75 627.385 2317.87 627.385Z" fill="#E92300"/>
<rect x="2288.28" y="1005.08" width="62.0092" height="343.869" rx="31.0046" fill="#F1DF27"/>
<path d="M2311.72 1009.19C2223.69 1009.19 2152.52 974.974 2098.21 906.533C2055.43 852.758 2034.04 793.687 2034.04 729.32C2034.04 652.731 2061.6 586.327 2116.72 530.107C2172.67 474.702 2238.5 447 2314.19 447C2393.18 447 2460.23 474.702 2515.36 530.107C2571.31 586.327 2599.28 653.953 2599.28 732.986C2599.28 808.76 2570.9 873.535 2514.12 927.31C2458.18 981.9 2390.71 1009.19 2311.72 1009.19ZM2310.49 824.648C2412.51 824.648 2482.45 817.723 2520.29 803.872C2562.26 788.391 2583.24 763.54 2583.24 729.32C2583.24 697.543 2561.02 672.693 2516.59 654.768C2472.99 636.843 2412.51 627.88 2335.17 627.88C2227.39 627.88 2150.87 638.472 2105.62 659.656C2069.42 676.767 2051.31 700.802 2051.31 731.764C2051.31 770.058 2074.35 795.316 2120.43 807.538C2164.03 818.945 2227.39 824.648 2310.49 824.648Z" fill="#024AC3"/>
<path d="M2865 1473C2865 1525.09 2853.81 1573.24 2831.43 1617.45C2809.05 1661.06 2777.6 1695.89 2737.07 1721.93C2697.15 1747.98 2650.28 1761 2596.44 1761C2541.4 1761 2490.59 1744.95 2444.02 1712.85C2397.45 1680.75 2354.5 1629.57 2315.19 1559.31C2277.68 1623.51 2235.65 1672.57 2189.07 1706.49C2143.1 1740.41 2093.51 1757.37 2040.28 1757.37C1987.05 1757.37 1939.87 1745.25 1898.74 1721.03C1858.22 1696.8 1826.46 1663.18 1803.48 1620.18C1780.49 1577.18 1769 1527.21 1769 1470.27C1769 1416.97 1780.19 1368.82 1802.57 1325.82C1825.55 1282.82 1857.31 1248.6 1897.83 1223.16C1938.96 1197.72 1986.45 1185 2040.28 1185C2092.3 1185 2141.59 1201.05 2188.17 1233.15C2234.74 1264.65 2277.38 1315.22 2316.09 1384.87C2351.78 1321.88 2393.21 1273.43 2440.39 1239.51C2487.57 1204.99 2539.89 1187.73 2597.35 1187.73C2677.19 1187.73 2741.61 1214.07 2790.6 1266.77C2840.2 1319.46 2865 1388.21 2865 1473ZM2257.12 1470.27C2225.67 1409.1 2193.31 1364.89 2160.04 1337.63C2126.77 1309.77 2088.67 1295.84 2045.72 1295.84C1995.52 1295.84 1955.9 1312.8 1926.87 1346.72C1897.83 1380.03 1883.32 1421.52 1883.32 1471.18C1883.32 1519.03 1897.23 1559.91 1925.05 1593.83C1952.88 1627.75 1993.4 1644.71 2046.63 1644.71C2087.76 1644.71 2125.26 1630.78 2159.13 1602.92C2193 1574.45 2225.67 1530.24 2257.12 1470.27ZM2750.68 1473C2750.68 1422.73 2735.86 1381.24 2706.23 1348.53C2676.59 1315.22 2636.97 1298.56 2587.37 1298.56C2546.85 1298.56 2509.95 1312.5 2476.68 1340.36C2443.42 1368.22 2410.15 1412.43 2376.88 1473C2407.73 1532.36 2440.09 1576.27 2473.96 1604.74C2507.83 1633.2 2545.94 1647.44 2588.28 1647.44C2637.88 1647.44 2677.19 1630.78 2706.23 1597.47C2735.86 1564.15 2750.68 1522.67 2750.68 1473Z" fill="#EA70C7"/>
</g>
<defs>
<clipPath id="clip0_60_2">
<rect width="11278" height="4620" fill="white" transform="translate(4620) rotate(90)"/>
</clipPath>
</defs>
</svg>
